# Blender 3.6.2
# www.blender.org
mtllib untitled.mtl
o Cube
v 0.195148 -0.349797 -0.360856
v 0.301687 -0.786032 -0.466132
v 0.298284 -0.354804 0.146052
v 0.414563 -0.762490 0.177292
v -0.541466 -0.273227 -0.533423
v -0.954549 -0.911308 -0.898409
v -0.104122 -0.590191 0.391616
v -0.403413 -0.945199 0.626878
v 0.382656 -0.450705 0.213294
v -0.316379 -0.707445 0.648753
v 0.291041 -0.512387 -0.467068
v -0.958242 -0.450614 -0.796105
v -0.683202 -0.911151 -0.804863
v -0.257389 -0.954776 0.491856
v -0.245995 -0.585935 0.468742
v -0.725310 -0.435636 -0.708923
v -1.134319 -0.902842 -0.825373
v -0.583182 -0.936733 0.699914
v -0.496148 -0.698979 0.721788
v -1.138012 -0.442149 -0.723069
vn -0.1170 0.9586 0.2597
vn 0.4025 -0.0052 0.9154
vn -0.3608 0.1994 -0.9111
vn 0.1887 -0.9800 -0.0625
vn 0.9842 0.0810 -0.1573
vn 0.2728 0.1399 -0.9519
vn -0.0539 0.8526 0.5198
vn 0.7985 0.5808 -0.1587
vn -0.4948 0.7774 0.3884
vn 0.2334 0.6001 -0.7651
vn -0.0244 -0.9995 -0.0190
vn 0.8384 -0.1350 0.5280
vn 0.3241 0.2111 -0.9221
vn -0.3221 0.9049 0.2782
vn -0.9256 0.0436 0.3760
vn -0.0489 -0.9988 -0.0045
vn 0.0997 0.9864 0.1310
vn 0.3589 -0.2149 0.9083
vt 0.609953 0.553707
vt 0.821806 0.537734
vt 0.808074 0.695901
vt 0.626507 0.691959
vt 0.375000 0.750000
vt 0.534245 0.750000
vt 0.534245 1.000000
vt 0.375000 1.000000
vt 0.511363 0.237189
vt 0.397981 0.237169
vt 0.125000 0.500000
vt 0.375000 0.500000
vt 0.125000 0.750000
vt 0.534245 0.500000
vt 0.375000 0.250000
vt 0.534245 0.250000
vt 0.901446 0.743096
vt 0.898951 0.483616
vt 0.408568 0.012852
vt 0.375000 0.000000
vt 0.500823 0.012827
vt 0.534245 0.000000
s 0
usemtl Material
f 1/1/1 5/2/1 7/3/1 3/4/1
f 4/5/2 9/6/2 15/7/2 14/8/2
f 12/9/3 6/10/3 17/10/3 20/9/3
f 13/11/4 2/12/4 4/5/4 14/13/4
f 2/12/5 11/14/5 9/6/5 4/5/5
f 13/15/6 16/16/6 11/14/6 2/12/6
f 3/4/7 7/3/7 15/17/7 9/6/7
f 1/1/8 3/4/8 9/6/8 11/14/8
f 7/3/9 5/2/9 16/18/9 15/17/9
f 5/2/10 1/1/10 11/14/10 16/18/10
f 8/19/11 6/10/11 13/15/11 14/20/11
f 10/21/12 8/19/12 14/20/12 15/22/12
f 6/10/13 12/9/13 16/16/13 13/15/13
f 12/9/14 10/21/14 15/22/14 16/16/14
f 18/19/15 19/21/15 20/9/15 17/10/15
f 6/10/16 8/19/16 18/19/16 17/10/16
f 10/21/17 12/9/17 20/9/17 19/21/17
f 8/19/18 10/21/18 19/21/18 18/19/18
